# xmcd
#
# Track frame offsets: 
#        150
#        21631
#        38126
#        55074
#        70474
#        91541
#        108031
#        122411
#        138576
#        151568
#        165487
#        180381
#
# Disc length: 2611 seconds
#
# Revision: 5
# Processed by: cddbd v1.5.2PL0 Copyright (c) Steve Scherf et al.
# Submitted via: ExactAudioCopy v1.0b3
#
DISCID=8b0a310c
DTITLE=Nicole - Fuer die Seele
DYEAR=2004
DGENRE=Pop
TTITLE0=Fuer die Seele
TTITLE1=Sag, dass du bleibst
TTITLE2=Nadja
TTITLE3=Verlass mich
TTITLE4=I love you
TTITLE5=Wahre Liebe
TTITLE6=Ich hab es versucht
TTITLE7=Du bist wie der Wind auf meiner Haut
TTITLE8=Mir kommen die Traenen
TTITLE9=Bitter-Suesse Zeit
TTITLE10=Ich will Musik
TTITLE11=Kein Abschied ist fuer immer
EXTD=
EXTT0=
EXTT1=
EXTT2=
EXTT3=
EXTT4=
EXTT5=
EXTT6=
EXTT7=
EXTT8=
EXTT9=
EXTT10=
EXTT11=
PLAYORDER=
